<mxfile host="app.diagrams.net" modified="2024-06-03T09:35:47.356Z" agent="Mozilla/5.0 (Macintosh; Intel Mac OS X 10_15_7) AppleWebKit/537.36 (KHTML, like Gecko) Chrome/125.0.0.0 Safari/537.36" etag="tgQU22X7Dgd0oJ-hrGAl" version="24.4.10" type="device">
  <diagram name="Page-1" id="YPfnxQiTFga9hXsRp6ry">
    <mxGraphModel dx="1293" dy="1669" grid="1" gridSize="10" guides="1" tooltips="1" connect="1" arrows="1" fold="1" page="1" pageScale="1" pageWidth="850" pageHeight="1100" math="0" shadow="0">
      <root>
        <mxCell id="0" />
        <mxCell id="1" parent="0" />
        <mxCell id="z_5LLddydl2T3Fb16pgF-7" value="" style="edgeStyle=orthogonalEdgeStyle;rounded=0;orthogonalLoop=1;jettySize=auto;html=1;" parent="1" source="z_5LLddydl2T3Fb16pgF-2" target="z_5LLddydl2T3Fb16pgF-6" edge="1">
          <mxGeometry relative="1" as="geometry" />
        </mxCell>
        <mxCell id="z_5LLddydl2T3Fb16pgF-2" value="Run python&lt;br&gt;- no hp" style="whiteSpace=wrap;html=1;strokeWidth=2;" parent="1" vertex="1">
          <mxGeometry x="170" y="-110" width="120" height="60" as="geometry" />
        </mxCell>
        <mxCell id="z_5LLddydl2T3Fb16pgF-9" value="" style="edgeStyle=orthogonalEdgeStyle;rounded=0;orthogonalLoop=1;jettySize=auto;html=1;" parent="1" source="z_5LLddydl2T3Fb16pgF-6" target="z_5LLddydl2T3Fb16pgF-8" edge="1">
          <mxGeometry relative="1" as="geometry" />
        </mxCell>
        <mxCell id="z_5LLddydl2T3Fb16pgF-6" value="API&lt;br&gt;Broadcast" style="whiteSpace=wrap;html=1;strokeWidth=2;" parent="1" vertex="1">
          <mxGeometry x="360" y="-110" width="120" height="60" as="geometry" />
        </mxCell>
        <mxCell id="z_5LLddydl2T3Fb16pgF-11" value="" style="edgeStyle=orthogonalEdgeStyle;rounded=0;orthogonalLoop=1;jettySize=auto;html=1;" parent="1" source="z_5LLddydl2T3Fb16pgF-8" target="z_5LLddydl2T3Fb16pgF-10" edge="1">
          <mxGeometry relative="1" as="geometry" />
        </mxCell>
        <mxCell id="z_5LLddydl2T3Fb16pgF-8" value="Link Form" style="whiteSpace=wrap;html=1;strokeWidth=2;" parent="1" vertex="1">
          <mxGeometry x="560" y="-110" width="120" height="60" as="geometry" />
        </mxCell>
        <mxCell id="z_5LLddydl2T3Fb16pgF-17" value="Boot Camp" style="swimlane;whiteSpace=wrap;html=1;" parent="1" vertex="1">
          <mxGeometry x="130" y="-280" width="640" height="480" as="geometry" />
        </mxCell>
        <mxCell id="z_5LLddydl2T3Fb16pgF-19" value="System" style="text;html=1;align=center;verticalAlign=middle;whiteSpace=wrap;rounded=0;" parent="z_5LLddydl2T3Fb16pgF-17" vertex="1">
          <mxGeometry x="40" y="80" width="310" height="30" as="geometry" />
        </mxCell>
        <mxCell id="z_5LLddydl2T3Fb16pgF-20" value="User" style="text;html=1;align=center;verticalAlign=middle;whiteSpace=wrap;rounded=0;" parent="z_5LLddydl2T3Fb16pgF-17" vertex="1">
          <mxGeometry x="430" y="80" width="110" height="30" as="geometry" />
        </mxCell>
        <mxCell id="z_5LLddydl2T3Fb16pgF-24" value="" style="edgeStyle=orthogonalEdgeStyle;rounded=0;orthogonalLoop=1;jettySize=auto;html=1;" parent="z_5LLddydl2T3Fb16pgF-17" source="z_5LLddydl2T3Fb16pgF-10" target="z_5LLddydl2T3Fb16pgF-23" edge="1">
          <mxGeometry relative="1" as="geometry" />
        </mxCell>
        <mxCell id="z_5LLddydl2T3Fb16pgF-10" value="Form" style="whiteSpace=wrap;html=1;strokeWidth=2;" parent="z_5LLddydl2T3Fb16pgF-17" vertex="1">
          <mxGeometry x="430" y="280" width="120" height="60" as="geometry" />
        </mxCell>
        <mxCell id="z_5LLddydl2T3Fb16pgF-23" value="Wording WA&amp;nbsp;" style="whiteSpace=wrap;html=1;strokeWidth=2;" parent="z_5LLddydl2T3Fb16pgF-17" vertex="1">
          <mxGeometry x="430" y="390" width="120" height="60" as="geometry" />
        </mxCell>
      </root>
    </mxGraphModel>
  </diagram>
</mxfile>
